name rise43.5482peak65.4966fall89.1036.mot
datacolumns 19
datarows 12
range 1.95498400000000 1.97332500000000
endheader
time	ground_force1_vx	ground_force1_vy	ground_force1_vz	ground_force1_px	ground_force1_py	ground_force1_pz	ground_force2_vx	ground_force2_vy	ground_force2_vz	ground_force2_px	ground_force2_py	ground_force2_pz	ground_torque1_x	ground_torque1_y	ground_torque1_z	ground_torque2_x	ground_torque2_y	ground_torque2_z	
1.95498400000000	58.55261600000000	807.83920400000000	64.95897400000000	0.26598200000000	0.00000000000000	0.15287900000000	0.00000000000000	0.00000000000000	0.00000000000000	0.00000000000000	0.00000000000000	0.00000000000000	0.00000000000000	15.79568900000000	0.00000000000000	0.00000000000000	0.00000000000000	0.00000000000000	
1.95666000000000	57.96642600000000	810.27023199999996	65.04479700000000	0.26524400000000	0.00000000000000	0.15286200000000	0.00000000000000	0.00000000000000	0.00000000000000	0.00000000000000	0.00000000000000	0.00000000000000	0.00000000000000	15.88289200000000	0.00000000000000	0.00000000000000	0.00000000000000	0.00000000000000	
1.95832100000000	57.37047600000000	812.49607400000002	65.12740500000000	0.26450400000000	0.00000000000000	0.15284800000000	0.00000000000000	0.00000000000000	0.00000000000000	0.00000000000000	0.00000000000000	0.00000000000000	0.00000000000000	15.97120500000000	0.00000000000000	0.00000000000000	0.00000000000000	0.00000000000000	
1.95999400000000	56.76519300000000	814.51588700000002	65.20643800000001	0.26376000000000	0.00000000000000	0.15283800000000	0.00000000000000	0.00000000000000	0.00000000000000	0.00000000000000	0.00000000000000	0.00000000000000	0.00000000000000	16.06029600000000	0.00000000000000	0.00000000000000	0.00000000000000	0.00000000000000	
1.96165200000000	56.15099000000000	816.32924000000003	65.28147800000001	0.26301100000000	0.00000000000000	0.15283200000000	0.00000000000000	0.00000000000000	0.00000000000000	0.00000000000000	0.00000000000000	0.00000000000000	0.00000000000000	16.14980700000000	0.00000000000000	0.00000000000000	0.00000000000000	0.00000000000000	
1.96331800000000	55.52825800000000	817.93612599999994	65.35205600000000	0.26225400000000	0.00000000000000	0.15282900000000	0.00000000000000	0.00000000000000	0.00000000000000	0.00000000000000	0.00000000000000	0.00000000000000	0.00000000000000	16.23935600000000	0.00000000000000	0.00000000000000	0.00000000000000	0.00000000000000	
1.96498900000000	54.89738200000000	819.33696099999997	65.41765500000000	0.26148800000000	0.00000000000000	0.15282900000000	0.00000000000000	0.00000000000000	0.00000000000000	0.00000000000000	0.00000000000000	0.00000000000000	0.00000000000000	16.32854400000000	0.00000000000000	0.00000000000000	0.00000000000000	0.00000000000000	
1.96665800000000	54.25873500000000	820.53259100000002	65.47772200000000	0.26071000000000	0.00000000000000	0.15283300000000	0.00000000000000	0.00000000000000	0.00000000000000	0.00000000000000	0.00000000000000	0.00000000000000	0.00000000000000	16.41695100000000	0.00000000000000	0.00000000000000	0.00000000000000	0.00000000000000	
1.96832400000000	53.61268400000000	821.52428599999996	65.53167000000001	0.25992000000000	0.00000000000000	0.15284000000000	0.00000000000000	0.00000000000000	0.00000000000000	0.00000000000000	0.00000000000000	0.00000000000000	0.00000000000000	16.50414700000000	0.00000000000000	0.00000000000000	0.00000000000000	0.00000000000000	
1.96998700000000	52.95959400000000	822.31374300000004	65.57888500000000	0.25911500000000	0.00000000000000	0.15285000000000	0.00000000000000	0.00000000000000	0.00000000000000	0.00000000000000	0.00000000000000	0.00000000000000	0.00000000000000	16.58969000000000	0.00000000000000	0.00000000000000	0.00000000000000	0.00000000000000	
1.97165400000000	52.29983100000000	822.90308000000005	65.61873600000000	0.25829400000000	0.00000000000000	0.15286400000000	0.00000000000000	0.00000000000000	0.00000000000000	0.00000000000000	0.00000000000000	0.00000000000000	0.00000000000000	16.67313300000000	0.00000000000000	0.00000000000000	0.00000000000000	0.00000000000000	
1.97332500000000	51.63376300000000	823.29483200000004	65.65057700000000	0.25745600000000	0.00000000000000	0.15288000000000	0.00000000000000	0.00000000000000	0.00000000000000	0.00000000000000	0.00000000000000	0.00000000000000	0.00000000000000	16.75402500000000	0.00000000000000	0.00000000000000	0.00000000000000	0.00000000000000	
